<svg fill="none" height="24" viewBox="0 0 24 24" width="24" xmlns="http://www.w3.org/2000/svg"><g fill="#292d32"><path d="m17.5401 8.81063c1.6347 0 2.96-1.32524 2.96-2.96001 0-1.63476-1.3253-2.96-2.96-2.96-1.6348 0-2.96 1.32524-2.96 2.96 0 1.63477 1.3252 2.96001 2.96 2.96001z"/><path d="m6.46 8.81063c1.63476 0 2.96-1.32524 2.96-2.96001 0-1.63476-1.32524-2.96-2.96-2.96s-2.96 1.32524-2.96 2.96c0 1.63477 1.32524 2.96001 2.96 2.96001z"/><path d="m17.5401 21.1114c1.6347 0 2.96-1.3252 2.96-2.96s-1.3253-2.96-2.96-2.96c-1.6348 0-2.96 1.3252-2.96 2.96s1.3252 2.96 2.96 2.96z"/><path d="m6.46 21.1114c1.63476 0 2.96-1.3252 2.96-2.96s-1.32524-2.96-2.96-2.96-2.96 1.3252-2.96 2.96 1.32524 2.96 2.96 2.96z"/></g></svg>